<svg width="1764" height="2410" xmlns="http://www.w3.org/2000/svg" xmlns:xlink="http://www.w3.org/1999/xlink" xml:space="preserve" overflow="hidden"><g transform="translate(-1097 -31)"><rect x="1340.5" y="186.5" width="1308" height="243" stroke="#172C51" stroke-width="1.14583" stroke-miterlimit="8" fill="none"/><path d="M1340.5 281.25 2012 281.25 2012 254.5 2065.5 308 2012 361.5 2012 334.75 1340.5 334.75Z" stroke="#172C51" stroke-width="1.14583" stroke-miterlimit="8" fill="none" fill-rule="evenodd"/><text font-family="Calibri,Calibri_MSFontService,sans-serif" font-weight="400" font-size="83" transform="matrix(1 0 0 1 1151.27 334)">start</text><text font-family="Calibri,Calibri_MSFontService,sans-serif" font-weight="400" font-size="83" transform="matrix(1 0 0 1 1620.53 133)">Forward Linear Search</text><rect x="1340.5" y="1192.5" width="1308" height="243" stroke="#172C51" stroke-width="1.14583" stroke-miterlimit="8" fill="none"/><path d="M2242.5 1287.25 2595 1287.25 2595 1260.5 2648.5 1314 2595 1367.5 2595 1340.75 2242.5 1340.75Z" stroke="#172C51" stroke-width="1.14583" stroke-miterlimit="8" fill="none" fill-rule="evenodd"/><text font-family="Calibri,Calibri_MSFontService,sans-serif" font-weight="400" font-size="83" transform="matrix(1 0 0 1 2053.83 1340)">start</text><text font-family="Calibri,Calibri_MSFontService,sans-serif" font-weight="400" font-size="83" transform="matrix(1 0 0 1 1535.94 1139)">Wrap</text><text font-family="Calibri,Calibri_MSFontService,sans-serif" font-weight="400" font-size="83" transform="matrix(1 0 0 1 1716.89 1139)">-</text><text font-family="Calibri,Calibri_MSFontService,sans-serif" font-weight="400" font-size="83" transform="matrix(1 0 0 1 1742.1 1139)">around Linear Search</text><path d="M1340.5 1287.25 1851 1287.25 1851 1260.5 1904.5 1314 1851 1367.5 1851 1340.75 1340.5 1340.75Z" stroke="#172C51" stroke-width="1.14583" stroke-miterlimit="8" fill="none" fill-rule="evenodd"/><rect x="1340.5" y="1695.5" width="1308" height="242" stroke="#172C51" stroke-width="1.14583" stroke-miterlimit="8" fill="none"/><path d="M2105.5 1790.25 2595 1790.25 2595 1763.5 2648.5 1817 2595 1870.5 2595 1843.75 2105.5 1843.75Z" stroke="#172C51" stroke-width="1.14583" stroke-miterlimit="8" fill="none" fill-rule="evenodd"/><text font-family="Calibri,Calibri_MSFontService,sans-serif" font-weight="400" font-size="83" transform="matrix(1 0 0 1 1916.36 1843)">start</text><text font-family="Calibri,Calibri_MSFontService,sans-serif" font-weight="400" font-size="83" transform="matrix(1 0 0 1 1585.93 1642)">Expanding Linear Search</text><path d="M1887.5 1843.75 1397 1843.75 1397 1870.5 1343.5 1817 1397 1763.5 1397 1790.25 1887.5 1790.25Z" stroke="#172C51" stroke-width="1.14583" stroke-miterlimit="8" fill="none" fill-rule="evenodd"/><rect x="1316.5" y="2198.5" width="1308" height="242" stroke="#172C51" stroke-width="1.14583" stroke-miterlimit="8" fill="none"/><path d="M2624.5 2346.5 2135.5 2346.5 2135.5 2373.5 2081.5 2319.5 2135.5 2265.5 2135.5 2292.5 2624.5 2292.5Z" stroke="#172C51" stroke-width="1.14583" stroke-miterlimit="8" fill="none" fill-rule="evenodd"/><text font-family="Calibri,Calibri_MSFontService,sans-serif" font-weight="400" font-size="83" transform="matrix(1 0 0 1 1146.97 2346)">start</text><text font-family="Calibri,Calibri_MSFontService,sans-serif" font-weight="400" font-size="83" transform="matrix(1 0 0 1 1603.37 2145)">Inwards Linear Search</text><path d="M1316.5 2292.5 1805.5 2292.5 1805.5 2265.5 1859.5 2319.5 1805.5 2373.5 1805.5 2346.5 1316.5 2346.5Z" stroke="#172C51" stroke-width="1.14583" stroke-miterlimit="8" fill="none" fill-rule="evenodd"/><text font-family="Calibri,Calibri_MSFontService,sans-serif" font-weight="400" font-size="83" transform="matrix(1 0 0 1 2657.49 2346)">start</text></g></svg>